# xmcd CD database file generated by Grip 3.2.0
# 
# Track frame offsets:
#       150
#       12334
#       23074
#       35561
#       44400
#       53232
#       66507
#       77070
#       96824
#       105718
#       118423
#       131385
#       141461
#       153227
#       163203
# 
# Disc length: 2338 seconds
# 
# Revision: 1
# Processed by: cddbd v1.5.2PL0 Copyright (c) Steve Scherf et al.
# Submitted via: Grip 3.2.0
# 
DISCID=d309200f
DTITLE=wolfango - stagnola
DYEAR=1999
DGENRE=Other
TTITLE0=i ricchi pagano 70000
TTITLE1=annalisa
TTITLE2=se tu
TTITLE3=volavia
TTITLE4=ti ringrazio
TTITLE5=agrodolce
TTITLE6=silvester
TTITLE7=marziano
TTITLE8=abitudine
TTITLE9=cicatrice
TTITLE10=simco
TTITLE11=perle
TTITLE12=pomodori
TTITLE13=lillipuziani
TTITLE14=stagnola
EXTD=
EXTT0=
EXTT1=
EXTT2=
EXTT3=
EXTT4=
EXTT5=
EXTT6=
EXTT7=
EXTT8=
EXTT9=
EXTT10=
EXTT11=
EXTT12=
EXTT13=
EXTT14=
PLAYORDER=
